<?xml version="1.0" encoding="UTF-8" standalone="no"?>
<!-- Created with Inkscape (http://www.inkscape.org/) -->

<svg
   xmlns:dc="http://purl.org/dc/elements/1.1/"
   xmlns:cc="http://creativecommons.org/ns#"
   xmlns:rdf="http://www.w3.org/1999/02/22-rdf-syntax-ns#"
   xmlns:svg="http://www.w3.org/2000/svg"
   xmlns="http://www.w3.org/2000/svg"
   xmlns:sodipodi="http://sodipodi.sourceforge.net/DTD/sodipodi-0.dtd"
   xmlns:inkscape="http://www.inkscape.org/namespaces/inkscape"
   width="210mm"
   height="47mm"
   viewBox="0 0 744.09449 166.53544"
   id="svg2"
   version="1.1"
   inkscape:version="0.91 r13725"
   sodipodi:docname="drawing.svg">
  <defs
     id="defs4">
    <marker
       inkscape:isstock="true"
       style="overflow:visible"
       id="marker5081"
       refX="0"
       refY="0"
       orient="auto"
       inkscape:stockid="Arrow2Mend">
      <path
         transform="scale(-0.6,-0.6)"
         d="M 8.7185878,4.0337352 -2.2072895,0.01601326 8.7185884,-4.0017078 c -1.7454984,2.3720609 -1.7354408,5.6174519 -6e-7,8.035443 z"
         style="fill:#000000;fill-opacity:1;fill-rule:evenodd;stroke:#000000;stroke-width:0.625;stroke-linejoin:round;stroke-opacity:1"
         id="path5083"
         inkscape:connector-curvature="0" />
    </marker>
    <marker
       inkscape:isstock="true"
       style="overflow:visible"
       id="marker4999"
       refX="0"
       refY="0"
       orient="auto"
       inkscape:stockid="Arrow2Mend">
      <path
         transform="scale(-0.6,-0.6)"
         d="M 8.7185878,4.0337352 -2.2072895,0.01601326 8.7185884,-4.0017078 c -1.7454984,2.3720609 -1.7354408,5.6174519 -6e-7,8.035443 z"
         style="fill:#000000;fill-opacity:1;fill-rule:evenodd;stroke:#000000;stroke-width:0.625;stroke-linejoin:round;stroke-opacity:1"
         id="path5001"
         inkscape:connector-curvature="0" />
    </marker>
    <marker
       inkscape:stockid="Arrow1Mend"
       orient="auto"
       refY="0"
       refX="0"
       id="marker4882"
       style="overflow:visible"
       inkscape:isstock="true">
      <path
         id="path4884"
         d="M 0,0 5,-5 -12.5,0 5,5 0,0 Z"
         style="fill:#000000;fill-opacity:1;fill-rule:evenodd;stroke:#000000;stroke-width:1pt;stroke-opacity:1"
         transform="matrix(-0.4,0,0,-0.4,-4,0)"
         inkscape:connector-curvature="0" />
    </marker>
    <marker
       inkscape:stockid="Arrow1Mend"
       orient="auto"
       refY="0"
       refX="0"
       id="marker4818"
       style="overflow:visible"
       inkscape:isstock="true">
      <path
         id="path4820"
         d="M 0,0 5,-5 -12.5,0 5,5 0,0 Z"
         style="fill:#000000;fill-opacity:1;fill-rule:evenodd;stroke:#000000;stroke-width:1pt;stroke-opacity:1"
         transform="matrix(-0.4,0,0,-0.4,-4,0)"
         inkscape:connector-curvature="0" />
    </marker>
    <marker
       inkscape:stockid="Arrow1Mend"
       orient="auto"
       refY="0"
       refX="0"
       id="Arrow1Mend"
       style="overflow:visible"
       inkscape:isstock="true">
      <path
         id="path4275"
         d="M 0,0 5,-5 -12.5,0 5,5 0,0 Z"
         style="fill:#000000;fill-opacity:1;fill-rule:evenodd;stroke:#000000;stroke-width:1pt;stroke-opacity:1"
         transform="matrix(-0.4,0,0,-0.4,-4,0)"
         inkscape:connector-curvature="0" />
    </marker>
    <marker
       inkscape:stockid="Arrow2Mend"
       orient="auto"
       refY="0"
       refX="0"
       id="marker4710"
       style="overflow:visible"
       inkscape:isstock="true"
       inkscape:collect="always">
      <path
         id="path4712"
         style="fill:#000000;fill-opacity:1;fill-rule:evenodd;stroke:#000000;stroke-width:0.625;stroke-linejoin:round;stroke-opacity:1"
         d="M 8.7185878,4.0337352 -2.2072895,0.01601326 8.7185884,-4.0017078 c -1.7454984,2.3720609 -1.7354408,5.6174519 -6e-7,8.035443 z"
         transform="scale(-0.6,-0.6)"
         inkscape:connector-curvature="0" />
    </marker>
    <marker
       inkscape:stockid="Arrow2Mend"
       orient="auto"
       refY="0"
       refX="0"
       id="marker4664"
       style="overflow:visible"
       inkscape:isstock="true">
      <path
         id="path4666"
         style="fill:#000000;fill-opacity:1;fill-rule:evenodd;stroke:#000000;stroke-width:0.625;stroke-linejoin:round;stroke-opacity:1"
         d="M 8.7185878,4.0337352 -2.2072895,0.01601326 8.7185884,-4.0017078 c -1.7454984,2.3720609 -1.7354408,5.6174519 -6e-7,8.035443 z"
         transform="scale(-0.6,-0.6)"
         inkscape:connector-curvature="0" />
    </marker>
    <marker
       inkscape:stockid="Arrow2Mend"
       orient="auto"
       refY="0"
       refX="0"
       id="marker4624"
       style="overflow:visible"
       inkscape:isstock="true"
       inkscape:collect="always">
      <path
         id="path4626"
         style="fill:#000000;fill-opacity:1;fill-rule:evenodd;stroke:#000000;stroke-width:0.625;stroke-linejoin:round;stroke-opacity:1"
         d="M 8.7185878,4.0337352 -2.2072895,0.01601326 8.7185884,-4.0017078 c -1.7454984,2.3720609 -1.7354408,5.6174519 -6e-7,8.035443 z"
         transform="scale(-0.6,-0.6)"
         inkscape:connector-curvature="0" />
    </marker>
    <marker
       inkscape:stockid="Arrow2Mend"
       orient="auto"
       refY="0"
       refX="0"
       id="Arrow2Mend"
       style="overflow:visible"
       inkscape:isstock="true">
      <path
         id="path4293"
         style="fill:#000000;fill-opacity:1;fill-rule:evenodd;stroke:#000000;stroke-width:0.625;stroke-linejoin:round;stroke-opacity:1"
         d="M 8.7185878,4.0337352 -2.2072895,0.01601326 8.7185884,-4.0017078 c -1.7454984,2.3720609 -1.7354408,5.6174519 -6e-7,8.035443 z"
         transform="scale(-0.6,-0.6)"
         inkscape:connector-curvature="0" />
    </marker>
    <marker
       inkscape:stockid="Arrow1Lend"
       orient="auto"
       refY="0"
       refX="0"
       id="Arrow1Lend"
       style="overflow:visible"
       inkscape:isstock="true">
      <path
         id="path4269"
         d="M 0,0 5,-5 -12.5,0 5,5 0,0 Z"
         style="fill:#000000;fill-opacity:1;fill-rule:evenodd;stroke:#000000;stroke-width:1pt;stroke-opacity:1"
         transform="matrix(-0.8,0,0,-0.8,-10,0)"
         inkscape:connector-curvature="0" />
    </marker>
    <marker
       inkscape:stockid="Arrow1Lstart"
       orient="auto"
       refY="0"
       refX="0"
       id="Arrow1Lstart"
       style="overflow:visible"
       inkscape:isstock="true">
      <path
         id="path4266"
         d="M 0,0 5,-5 -12.5,0 5,5 0,0 Z"
         style="fill:#000000;fill-opacity:1;fill-rule:evenodd;stroke:#000000;stroke-width:1pt;stroke-opacity:1"
         transform="matrix(0.8,0,0,0.8,10,0)"
         inkscape:connector-curvature="0" />
    </marker>
  </defs>
  <sodipodi:namedview
     id="base"
     pagecolor="#ffffff"
     bordercolor="#666666"
     borderopacity="1.0"
     inkscape:pageopacity="0.0"
     inkscape:pageshadow="2"
     inkscape:zoom="1.4"
     inkscape:cx="440.45774"
     inkscape:cy="148.67058"
     inkscape:document-units="px"
     inkscape:current-layer="layer1"
     showgrid="true"
     inkscape:window-width="1295"
     inkscape:window-height="744"
     inkscape:window-x="65"
     inkscape:window-y="24"
     inkscape:window-maximized="1">
    <inkscape:grid
       type="xygrid"
       id="grid4136" />
  </sodipodi:namedview>
  <metadata
     id="metadata7">
    <rdf:RDF>
      <cc:Work
         rdf:about="">
        <dc:format>image/svg+xml</dc:format>
        <dc:type
           rdf:resource="http://purl.org/dc/dcmitype/StillImage" />
        <dc:title></dc:title>
      </cc:Work>
    </rdf:RDF>
  </metadata>
  <g
     inkscape:label="Layer 1"
     inkscape:groupmode="layer"
     id="layer1"
     transform="translate(0,-885.82677)">
    <path
       style="fill:none;fill-rule:evenodd;stroke:#000000;stroke-width:1px;stroke-linecap:butt;stroke-linejoin:miter;stroke-opacity:1"
       d="m 6.4285711,940.93363 0,59.99997 329.9999989,0 0,-59.99997 z"
       id="path4138"
       inkscape:connector-curvature="0" />
    <path
       style="fill:none;fill-rule:evenodd;stroke:#000000;stroke-width:1px;stroke-linecap:butt;stroke-linejoin:miter;stroke-opacity:1"
       d="m 6.4285711,970.93361 329.9999989,0"
       id="path4140"
       inkscape:connector-curvature="0" />
    <path
       style="fill:none;fill-rule:evenodd;stroke:#000000;stroke-width:1px;stroke-linecap:butt;stroke-linejoin:miter;stroke-opacity:1"
       d="m 66.428567,940.93363 0,29.99998"
       id="path4142"
       inkscape:connector-curvature="0" />
    <path
       style="fill:none;fill-rule:evenodd;stroke:#000000;stroke-width:1px;stroke-linecap:butt;stroke-linejoin:miter;stroke-opacity:1"
       d="m 96.428567,970.93361 0,29.99999"
       id="path4144"
       inkscape:connector-curvature="0" />
    <path
       style="fill:none;fill-rule:evenodd;stroke:#000000;stroke-width:1px;stroke-linecap:butt;stroke-linejoin:miter;stroke-opacity:1"
       d="m 146.42857,940.93363 0,29.99998"
       id="path4146"
       inkscape:connector-curvature="0" />
    <path
       style="fill:none;fill-rule:evenodd;stroke:#000000;stroke-width:1px;stroke-linecap:butt;stroke-linejoin:miter;stroke-opacity:1"
       d="m 226.42857,940.93363 0,29.99998"
       id="path4148"
       inkscape:connector-curvature="0" />
    <path
       style="fill:none;fill-rule:evenodd;stroke:#000000;stroke-width:1px;stroke-linecap:butt;stroke-linejoin:miter;stroke-opacity:1"
       d="m 306.42857,940.93363 0,29.99998"
       id="path4150"
       inkscape:connector-curvature="0" />
    <path
       style="fill:none;fill-rule:evenodd;stroke:#000000;stroke-width:1px;stroke-linecap:butt;stroke-linejoin:miter;stroke-opacity:1"
       d="m 136.42857,970.93361 0,29.99999"
       id="path4152"
       inkscape:connector-curvature="0" />
    <path
       style="fill:#000000;fill-rule:evenodd;stroke:#000000;stroke-width:1px;stroke-linecap:butt;stroke-linejoin:miter;stroke-opacity:1"
       d="m 206.42857,970.93361 0,29.99999"
       id="path4154"
       inkscape:connector-curvature="0" />
    <path
       style="fill:#000000;fill-opacity:1;stroke:#000300;stroke-width:1.01015258;stroke-miterlimit:4;stroke-dasharray:none;stroke-opacity:0.8993711"
       d="m 6.9866341,955.77027 0,-14.14213 29.2944239,0 29.294429,0 0,14.14213 0,14.14214 -29.294429,0 -29.2944239,0 0,-14.14214 z"
       id="path4156"
       inkscape:connector-curvature="0" />
    <path
       style="fill:#000000;fill-opacity:1;stroke:#000300;stroke-width:1.01015258;stroke-miterlimit:4;stroke-dasharray:none;stroke-opacity:0.8993711"
       d="m 6.9866341,986.07481 0,-14.1421 44.4467129,0 44.44671,0 0,14.1421 0,14.14219 -44.44671,0 -44.4467129,0 0,-14.14219 z"
       id="path4158"
       inkscape:connector-curvature="0" />
    <path
       style="fill:#00ffff;fill-opacity:1;stroke:none;stroke-width:1.01015258;stroke-miterlimit:4;stroke-dasharray:none;stroke-opacity:0.8993711"
       d="m 67.595787,955.77027 0,-14.14213 38.890873,0 38.89087,0 0,14.14213 0,14.14214 -38.89087,0 -38.890873,0 0,-14.14214 z"
       id="path4160"
       inkscape:connector-curvature="0" />
    <path
       style="fill:#cccccc;fill-opacity:1;stroke:none;stroke-width:1;stroke-miterlimit:4;stroke-dasharray:none;stroke-opacity:0.8993711"
       d="m 147.39784,955.77027 0,-14.14213 38.89087,0 38.89087,0 0,14.14213 0,14.14214 -38.89087,0 -38.89087,0 0,-14.14214 z"
       id="path4162"
       inkscape:connector-curvature="0" />
    <path
       style="fill:#cccccc;fill-opacity:1;stroke:none;stroke-width:1;stroke-miterlimit:4;stroke-dasharray:none;stroke-opacity:0.8993711"
       d="m 227.19989,955.77027 0,-14.14213 38.89087,0 38.89087,0 0,14.14213 0,14.14214 -38.89087,0 -38.89087,0 0,-14.14214 z"
       id="path4164"
       inkscape:connector-curvature="0" />
    <path
       style="fill:#cccccc;fill-opacity:1;stroke:none;stroke-width:1;stroke-miterlimit:4;stroke-dasharray:none;stroke-opacity:0.8993711"
       d="m 97.900357,986.07481 0,-14.1421 18.687823,0 18.68783,0 0,14.1421 0,14.14219 -18.68783,0 -18.687823,0 0,-14.14219 z"
       id="path4166"
       inkscape:connector-curvature="0" />
    <path
       style="fill:#cccccc;fill-opacity:1;stroke:none;stroke-width:1;stroke-miterlimit:4;stroke-dasharray:none;stroke-opacity:0.8993711"
       d="m 137.29631,986.07481 0,-14.1421 33.84011,0 33.84011,0 0,14.1421 0,14.14219 -33.84011,0 -33.84011,0 0,-14.14219 z"
       id="path4168"
       inkscape:connector-curvature="0" />
    <path
       style="fill:#cccccc;fill-opacity:1;stroke:none;stroke-width:1;stroke-miterlimit:4;stroke-dasharray:none;stroke-opacity:0.8993711"
       d="m 206.99684,986.07481 0,-14.1421 64.14468,0 64.14469,0 0,14.1421 0,14.14219 -64.14469,0 -64.14468,0 0,-14.14219 z"
       id="path4170"
       inkscape:connector-curvature="0" />
    <path
       inkscape:connector-curvature="0"
       id="path4172"
       d="m 367.5581,940.93363 0,59.99997 330,0 0,-59.99997 z"
       style="fill:none;fill-rule:evenodd;stroke:#000000;stroke-width:1px;stroke-linecap:butt;stroke-linejoin:miter;stroke-opacity:1" />
    <path
       inkscape:connector-curvature="0"
       id="path4174"
       d="m 367.5581,970.93361 330,0"
       style="fill:none;fill-rule:evenodd;stroke:#000000;stroke-width:1px;stroke-linecap:butt;stroke-linejoin:miter;stroke-opacity:1" />
    <path
       inkscape:connector-curvature="0"
       id="path4176"
       d="m 427.5581,940.93363 0,29.99998"
       style="fill:none;fill-rule:evenodd;stroke:#000000;stroke-width:1px;stroke-linecap:butt;stroke-linejoin:miter;stroke-opacity:1" />
    <path
       inkscape:connector-curvature="0"
       id="path4178"
       d="m 457.5581,970.93361 0,29.99999"
       style="fill:none;fill-rule:evenodd;stroke:#000000;stroke-width:1px;stroke-linecap:butt;stroke-linejoin:miter;stroke-opacity:1" />
    <path
       inkscape:connector-curvature="0"
       id="path4190"
       d="m 368.11616,955.77027 0,-14.14213 29.29443,0 29.29442,0 0,14.14213 0,14.14214 -29.29442,0 -29.29443,0 0,-14.14214 z"
       style="fill:#000000;fill-opacity:1;stroke:#000300;stroke-width:1.01015258;stroke-miterlimit:4;stroke-dasharray:none;stroke-opacity:0.8993711" />
    <path
       inkscape:connector-curvature="0"
       id="path4192"
       d="m 368.11616,986.07481 0,-14.1421 44.44672,0 44.44671,0 0,14.1421 0,14.14219 -44.44671,0 -44.44672,0 0,-14.14219 z"
       style="fill:#000000;fill-opacity:1;stroke:#000300;stroke-width:1.01015258;stroke-miterlimit:4;stroke-dasharray:none;stroke-opacity:0.8993711" />
    <path
       style="fill:none;fill-rule:evenodd;stroke:#000000;stroke-width:1px;stroke-linecap:butt;stroke-linejoin:miter;stroke-opacity:1"
       d="m 586.42857,970.93361 0,29.99999"
       id="path4206"
       inkscape:connector-curvature="0" />
    <path
       style="fill:none;fill-rule:evenodd;stroke:#000000;stroke-width:1px;stroke-linecap:butt;stroke-linejoin:miter;stroke-opacity:1"
       d="m 681.42857,970.93361 0,29.99999"
       id="path4208"
       inkscape:connector-curvature="0" />
    <path
       style="fill:none;fill-rule:evenodd;stroke:#000000;stroke-width:1px;stroke-linecap:butt;stroke-linejoin:miter;stroke-opacity:1"
       d="m 521.42857,940.93363 0,29.99998"
       id="path4210"
       inkscape:connector-curvature="0" />
    <path
       style="fill:none;fill-rule:evenodd;stroke:#000000;stroke-width:1px;stroke-linecap:butt;stroke-linejoin:miter;stroke-opacity:1"
       d="m 616.42857,940.93363 0,29.99998"
       id="path4212"
       inkscape:connector-curvature="0" />
    <path
       style="fill:none;fill-rule:evenodd;stroke:#000000;stroke-width:1px;stroke-linecap:butt;stroke-linejoin:miter;stroke-opacity:1"
       d="m 666.42857,940.93363 0,29.99998"
       id="path4214"
       inkscape:connector-curvature="0" />
    <path
       style="fill:#b3b3b3;fill-rule:evenodd;stroke:#000000;stroke-width:1px;stroke-linecap:butt;stroke-linejoin:miter;stroke-opacity:1"
       d="m 696.42857,940.93363 25,0 0,29.99998 -25,0"
       id="path4216"
       inkscape:connector-curvature="0" />
    <path
       style="fill:#00ffff;fill-opacity:1;stroke:none;stroke-width:1;stroke-miterlimit:4;stroke-dasharray:none;stroke-opacity:0.8993711"
       d="m 458.37738,985.95431 0,-14.3946 63.63961,0 63.63961,0 0,14.3946 0,14.39469 -63.63961,0 -63.63961,0 0,-14.39469 z"
       id="path4218"
       inkscape:connector-curvature="0" />
    <path
       style="fill:#b3b3b3;fill-opacity:1;stroke:none;stroke-width:1;stroke-miterlimit:4;stroke-dasharray:none;stroke-opacity:0.8993711"
       d="m 666.97388,955.9023 0,-14.14213 14.64721,0 14.64721,0 0,14.14213 0,14.14211 -14.64721,0 -14.64721,0 0,-14.14211 z"
       id="path4220"
       inkscape:connector-curvature="0" />
    <path
       style="fill:#b3b3b3;fill-opacity:1;stroke:none;stroke-width:1;stroke-miterlimit:4;stroke-dasharray:none;stroke-opacity:0.8993711"
       d="m 666.95457,970.23671 0,-0.1786 14.66518,0 14.66518,0 0,-9.55354 c 0,-8.4623 0.008,-9.55357 0.067,-9.55357 0.0593,0 0.067,1.11111 0.067,9.73214 l 0,9.73217 -14.73214,0 -14.73214,0 0,-0.1786 z"
       id="path4222"
       inkscape:connector-curvature="0" />
    <path
       style="fill:#b3b3b3;fill-opacity:1;stroke:none;stroke-width:1;stroke-miterlimit:4;stroke-dasharray:none;stroke-opacity:0.8993711"
       d="m 616.92747,956.17914 0,-14.28571 24.28571,0 24.28571,0 0,14.28571 0,14.28567 -24.28571,0 -24.28571,0 0,-14.28567 z"
       id="path4224"
       inkscape:connector-curvature="0" />
    <path
       style="fill:#b3b3b3;fill-opacity:1;stroke:none;stroke-width:1;stroke-miterlimit:4;stroke-dasharray:none;stroke-opacity:0.8993711"
       d="m 522.64175,956.17914 0,-14.28571 46.42857,0 46.42857,0 0,14.28571 0,14.28567 -46.42857,0 -46.42857,0 0,-14.28567 z"
       id="path4226"
       inkscape:connector-curvature="0" />
    <path
       style="fill:#b3b3b3;fill-opacity:1;stroke:none;stroke-width:1;stroke-miterlimit:4;stroke-dasharray:none;stroke-opacity:0.8993711"
       d="m 428.35604,956.17914 0,-14.28571 45.71428,0 45.71429,0 0,14.28571 0,14.28567 -45.71429,0 -45.71428,0 0,-14.28567 z"
       id="path4228"
       inkscape:connector-curvature="0" />
    <path
       style="fill:#b3b3b3;fill-opacity:1;stroke:none;stroke-width:1;stroke-miterlimit:4;stroke-dasharray:none;stroke-opacity:0.8993711"
       d="m 519.81965,956.12076 0,-14.24107 -34.86607,0 -34.86607,0 0,-0.22321 0,-0.22322 35.40178,0 35.40179,0 0,14.46429 0,14.46426 -0.53571,0 -0.53572,0 0,-14.24105 z"
       id="path4230"
       inkscape:connector-curvature="0" />
    <path
       style="fill:#b3b3b3;fill-opacity:1;stroke:none;stroke-width:1;stroke-miterlimit:4;stroke-dasharray:none;stroke-opacity:0.8993711"
       d="m 521.96251,955.89755 0,-14.46429 24.95536,0 24.95535,0 0,0.22322 0,0.22321 -24.64285,0 -24.64286,0 0,14.24107 0,14.24105 -0.3125,0 -0.3125,0 0,-14.46426 z"
       id="path4232"
       inkscape:connector-curvature="0" />
    <path
       style="fill:#b3b3b3;fill-opacity:1;stroke:none;stroke-width:1;stroke-miterlimit:4;stroke-dasharray:none;stroke-opacity:0.8993711"
       d="m 615.50273,956.12076 0,-14.24107 -20.58036,0 -20.58036,0 0,-0.22321 0,-0.22322 20.75893,0 20.75893,0 0,14.46429 c 0,14.40476 -7.1e-4,14.46426 -0.17857,14.46426 -0.17783,0 -0.17857,-0.059 -0.17857,-14.24105 z"
       id="path4234"
       inkscape:connector-curvature="0" />
    <path
       style="fill:#b3b3b3;fill-opacity:1;stroke:none;stroke-width:1;stroke-miterlimit:4;stroke-dasharray:none;stroke-opacity:0.8993711"
       d="m 665.41344,956.16557 0,-14.19627 -24.26339,-0.0226 -24.26339,-0.0226 24.30803,-0.0222 24.30804,-0.0222 0,14.24107 c 0,7.83259 -0.0201,14.24106 -0.0447,14.24106 -0.0245,0 -0.0446,-6.3883 -0.0446,-14.19625 z"
       id="path4236"
       inkscape:connector-curvature="0" />
    <path
       style="fill:#b3b3b3;fill-opacity:1;stroke:none;stroke-width:1;stroke-miterlimit:4;stroke-dasharray:none;stroke-opacity:0.8993711"
       d="m 665.50273,956.12076 0,-14.24107 -24.28572,0 -24.28571,0 0,-0.22321 0,-0.22322 24.46428,0 24.46429,0 0,14.46429 c 0,14.40476 -7.1e-4,14.46426 -0.17857,14.46426 -0.17783,0 -0.17857,-0.059 -0.17857,-14.24105 z"
       id="path4238"
       inkscape:connector-curvature="0" />
    <path
       style="fill:#b3b3b3;fill-opacity:1;stroke:none;stroke-width:1;stroke-miterlimit:4;stroke-dasharray:none;stroke-opacity:0.8993711"
       d="m 696.3238,946.3663 -0.0231,-4.62054 -14.66518,-0.0226 c -12.95318,-0.0199 -14.66518,-0.0382 -14.66518,-0.15625 0,-0.11815 1.70944,-0.13366 14.73214,-0.13366 l 14.73215,0 0,4.77679 c 0,2.62723 -0.0197,4.77678 -0.0438,4.77678 -0.0241,0 -0.0543,-2.07924 -0.067,-4.62053 z"
       id="path4240"
       inkscape:connector-curvature="0" />
    <path
       style="fill:#b3b3b3;fill-opacity:1;stroke:none;stroke-width:1;stroke-miterlimit:4;stroke-dasharray:none;stroke-opacity:0.8993711"
       d="m 696.31264,943.33106 c 0,-0.31306 0.003,-0.44113 0.007,-0.2846 0.004,0.15653 0.004,0.41267 0,0.56919 -0.004,0.15653 -0.007,0.0285 -0.007,-0.28459 z"
       id="path4242"
       inkscape:connector-curvature="0" />
    <path
       style="fill:#b3b3b3;fill-opacity:1;stroke:none;stroke-width:1;stroke-miterlimit:4;stroke-dasharray:none;stroke-opacity:0.8993711"
       d="m 696.28846,946.95829 c -4.6e-4,-5.11803 -1.3e-4,-5.15983 0.0167,-2.07589 0.009,1.73102 0.0278,3.79924 0.0409,4.59603 0.0188,1.15172 0.018,1.45558 -0.004,1.48221 -0.0199,0.024 -0.0314,0.20216 -0.0404,0.62718 -0.007,0.32653 -0.0128,-1.75676 -0.0131,-4.62953 z"
       id="path4244"
       inkscape:connector-curvature="0" />
    <path
       style="fill:#b3b3b3;fill-opacity:1;stroke:none;stroke-width:1;stroke-miterlimit:4;stroke-dasharray:none;stroke-opacity:0.8993711"
       d="m 587.44852,986.09911 0,-14.2858 46.42857,0 46.42857,0 0,14.2858 0,14.28569 -46.42857,0 -46.42857,0 0,-14.28569 z"
       id="path4246"
       inkscape:connector-curvature="0" />
    <path
       style="fill:none;fill-rule:evenodd;stroke:#000000;stroke-width:1px;stroke-linecap:butt;stroke-linejoin:miter;stroke-opacity:1;marker-end:url(#marker4664)"
       d="m 46.428567,1000.9336 10,20"
       id="path4248"
       inkscape:connector-curvature="0" />
    <path
       style="fill:none;fill-rule:evenodd;stroke:#000000;stroke-width:1px;stroke-linecap:butt;stroke-linejoin:miter;stroke-opacity:1;marker-end:url(#Arrow2Mend)"
       d="m 36.428571,940.93363 9.999996,-20"
       id="path4250"
       inkscape:connector-curvature="0" />
    <path
       style="fill:none;fill-rule:evenodd;stroke:#000000;stroke-width:1px;stroke-linecap:butt;stroke-linejoin:miter;stroke-opacity:1;marker-end:url(#marker4624)"
       d="m 106.42857,950.93363 10,-20"
       id="path4252"
       inkscape:connector-curvature="0" />
    <path
       style="fill:none;fill-rule:evenodd;stroke:#000000;stroke-width:1px;stroke-linecap:butt;stroke-linejoin:miter;stroke-opacity:1;marker-end:url(#marker4710)"
       d="m 476.42857,950.93363 60,-30"
       id="path4254"
       inkscape:connector-curvature="0" />
    <path
       style="fill:none;fill-rule:evenodd;stroke:#000000;stroke-width:1px;stroke-linecap:butt;stroke-linejoin:miter;stroke-opacity:1;marker-end:url(#Arrow1Mend)"
       d="m 576.42857,950.93363 -10,-30"
       id="path4256"
       inkscape:connector-curvature="0" />
    <path
       style="fill:none;fill-rule:evenodd;stroke:#000000;stroke-width:1px;stroke-linecap:butt;stroke-linejoin:miter;stroke-opacity:1;marker-end:url(#marker4818)"
       d="m 636.42857,950.93363 -30,-30"
       id="path4258"
       inkscape:connector-curvature="0" />
    <path
       style="fill:none;fill-rule:evenodd;stroke:#000000;stroke-width:1px;stroke-linecap:butt;stroke-linejoin:miter;stroke-opacity:1;marker-end:url(#marker4882)"
       d="m 696.42857,950.93363 -60,-30"
       id="path4260"
       inkscape:connector-curvature="0" />
    <text
       xml:space="preserve"
       style="font-style:normal;font-weight:normal;font-size:10px;line-height:125%;font-family:Sans;letter-spacing:0px;word-spacing:0px;fill:#000000;fill-opacity:1;stroke:none;stroke-width:1px;stroke-linecap:butt;stroke-linejoin:miter;stroke-opacity:1"
       x="13.571431"
       y="901.64789"
       id="text4952"
       sodipodi:linespacing="125%"><tspan
         sodipodi:role="line"
         id="tspan4954"
         x="13.571431"
         y="901.64789">initial load </tspan><tspan
         sodipodi:role="line"
         x="13.571431"
         y="914.14789"
         id="tspan4956">on machine 1</tspan></text>
    <text
       sodipodi:linespacing="125%"
       id="text4958"
       y="1032.3623"
       x="17.857143"
       style="font-style:normal;font-weight:normal;font-size:10px;line-height:125%;font-family:Sans;letter-spacing:0px;word-spacing:0px;fill:#000000;fill-opacity:1;stroke:none;stroke-width:1px;stroke-linecap:butt;stroke-linejoin:miter;stroke-opacity:1"
       xml:space="preserve"><tspan
         y="1032.3623"
         x="17.857143"
         id="tspan4960"
         sodipodi:role="line">initial load </tspan><tspan
         id="tspan4962"
         y="1044.8623"
         x="17.857143"
         sodipodi:role="line">on machine 2</tspan></text>
    <text
       xml:space="preserve"
       style="font-style:normal;font-weight:normal;font-size:10px;line-height:125%;font-family:Sans;letter-spacing:0px;word-spacing:0px;fill:#000000;fill-opacity:1;stroke:none;stroke-width:1px;stroke-linecap:butt;stroke-linejoin:miter;stroke-opacity:1"
       x="97.857155"
       y="908.07648"
       id="text4964"
       sodipodi:linespacing="125%"><tspan
         sodipodi:role="line"
         id="tspan4966"
         x="97.857155"
         y="908.07648">any job on </tspan><tspan
         sodipodi:role="line"
         x="97.857155"
         y="920.57648"
         id="tspan4968">machine 1 </tspan></text>
    <path
       style="fill:none;fill-rule:evenodd;stroke:#000000;stroke-width:1px;stroke-linecap:butt;stroke-linejoin:miter;stroke-opacity:1;marker-end:url(#marker5081)"
       d="m 416.42857,1000.9336 20,20"
       id="path4989"
       inkscape:connector-curvature="0" />
    <path
       style="fill:none;fill-rule:evenodd;stroke:#000000;stroke-width:1px;stroke-linecap:butt;stroke-linejoin:miter;stroke-opacity:1;marker-end:url(#marker4999)"
       d="m 526.42857,1000.9336 -30,20"
       id="path4991"
       inkscape:connector-curvature="0" />
    <text
       xml:space="preserve"
       style="font-style:normal;font-weight:normal;font-size:10px;line-height:125%;font-family:Sans;letter-spacing:0px;word-spacing:0px;fill:#000000;fill-opacity:1;stroke:none;stroke-width:1px;stroke-linecap:butt;stroke-linejoin:miter;stroke-opacity:1"
       x="432.14285"
       y="1033.0765"
       id="text5163"
       sodipodi:linespacing="125%"><tspan
         sodipodi:role="line"
         id="tspan5165"
         x="432.14285"
         y="1033.0765">initial load on </tspan><tspan
         sodipodi:role="line"
         x="432.14285"
         y="1045.5765"
         id="tspan5167">machine 2</tspan></text>
    <text
       xml:space="preserve"
       style="font-style:normal;font-weight:normal;font-size:10px;line-height:125%;font-family:Sans;letter-spacing:0px;word-spacing:0px;fill:#000000;fill-opacity:1;stroke:none;stroke-width:1px;stroke-linecap:butt;stroke-linejoin:miter;stroke-opacity:1"
       x="504.28568"
       y="903.07648"
       id="text5169"
       sodipodi:linespacing="125%"><tspan
         sodipodi:role="line"
         x="504.28568"
         y="903.07648"
         id="tspan5173">one of these jobs is from 2nd </tspan><tspan
         sodipodi:role="line"
         x="504.28568"
         y="915.57648"
         id="tspan5177">machine and a candidate</tspan></text>
  </g>
</svg>
